{"title":"How I Met Your Mother Season 9 WEB-DL XviD - DiGrX","uid":10555053,"size":4739668578,"categoryP":"video","categoryS":"tv_shows","magnet":"?xt=urn:btih:cec2e7d6e311edcf584e49e5648ea6cef8199a1e&amp;dn=How+I+Met+Your+Mother+Season+9+WEB-DL+XviD+-+DiGrX&amp;tr=udp%3A%2F%2Ftracker.openbittorrent.com%3A80&amp;tr=udp%3A%2F%2Fopen.demonii.com%3A1337&amp;tr=udp%3A%2F%2Ftracker.coppersurfer.tk%3A6969&amp;tr=udp%3A%2F%2Fexodus.desync.com%3A6969","seeders":9,"leechers":0,"uploader":"dimigeor","files":26,"time":1405378916,"description":"A DiGrX release\n\n\nHow I Met Your Mother Season 9 WEB-DL XviD - DiGrX\n\nAll episodes in XviD from WEB-DL\n\nCodec ID, Format: XVID, MPEG-4\nAspect ratio, Dimension: 16:9, 720x404\nAudio: MP3, 2 Channels\n\n\n+Extras: \nHow I Met Your Mother Finale Alternate Ending\n\n\n----------------------------------------------------------------------------------\n\n\nEpisode 1 example:\n\nGeneral\nComplete name                            : 9x01 How I Met Your Mother - The Locket WEB-DL.avi\nFormat                                   : AVI\nFormat/Info                              : Audio Video Interleave\nFile size                                : 187 MiB\nDuration                                 : 21mn 36s\nOverall bit rate                         : 1 210 Kbps\nWriting application                      : MEncoder SVN-r33883(20110719-gcc4.5.2)\nWriting library                          : MPlayer\n\nVideo\nID                                       : 0\nFormat                                   : MPEG-4 Visual\nFormat profile                           : Advanced Simple@L5\nFormat settings, BVOP                    : 2\nFormat settings, QPel                    : No\nFormat settings, GMC                     : No warppoints\nFormat settings, Matrix                  : Default (H.263)\nCodec ID                                 : XVID\nCodec ID/Hint                            : XviD\nDuration                                 : 21mn 36s\nBit rate                                 : 1 069 Kbps\nWidth                                    : 720 pixels\nHeight                                   : 404 pixels\nDisplay aspect ratio                     : 16:9\nFrame rate                               : 23.976 fps\nColor space                              : YUV\nChroma subsampling                       : 4:2:0\nBit depth                                : 8 bits\nScan type                                : Progressive\nCompression mode                         : Lossy\nBits/(Pixel*Frame)                       : 0.153\nStream size                              : 165 MiB (88%)\nWriting library                          : XviD 1.2.1 (UTC 2008-12-04)\n\nAudio\nID                                       : 1\nFormat                                   : MPEG Audio\nFormat version                           : Version 1\nFormat profile                           : Layer 3\nMode                                     : Joint stereo\nMode extension                           : MS Stereo\nCodec ID                                 : 55\nCodec ID/Hint                            : MP3\nDuration                                 : 21mn 36s\nBit rate mode                            : Constant\nBit rate                                 : 128 Kbps\nChannel(s)                               : 2 channels\nSampling rate                            : 48.0 KHz\nCompression mode                         : Lossy\nDelay relative to video                  : 42ms\nStream size                              : 19.8 MiB (11%)\nAlignment                                : Aligned on interleaves\nInterleave, duration                     : 24 ms (0.58 video frame)\nInterleave, preload duration             : 504 ms\nWriting library                          : LAME3.98.4\n","torrent":{"xt":"urn:btih:cec2e7d6e311edcf584e49e5648ea6cef8199a1e","amp;dn":"How+I+Met+Your+Mother+Season+9+WEB-DL+XviD+-+DiGrX","amp;tr":["udp%3A%2F%2Ftracker.openbittorrent.com%3A80","udp%3A%2F%2Fopen.demonii.com%3A1337","udp%3A%2F%2Ftracker.coppersurfer.tk%3A6969","udp%3A%2F%2Fexodus.desync.com%3A6969"],"infoHash":"cec2e7d6e311edcf584e49e5648ea6cef8199a1e","infoHashBuffer":{"type":"Buffer","data":[206,194,231,214,227,17,237,207,88,78,73,229,100,142,166,206,248,25,154,30]},"announce":[],"urlList":[]}}